#!OML:ASF F:\VICON\USERDATA\INSTALL\rory3\rory3.ASF
:FULLY-SPECIFIED
:DEGREES
36
root -1.14548 16.4557 -22.8636 3.11574 4.05881 0.760057
lowerback 12.286 1.17776 -5.69234
upperback -4.77539 0.781354 1.57346
thorax -12.3077 0.90164 4.78016
lowerneck -7.96997 -6.94256 -4.73025
upperneck 17.8138 -9.64464 4.36276
head 7.20938 -4.58514 1.33275
rclavicle 3.97569e-015 1.39149e-014
rhumerus -34.3405 4.41162 -85.3557
rradius 26.7516
rwrist 6.43089
rhand -11.9028 19.9425
rfingers 7.12502
rthumb 14.1507 -9.55557
lclavicle 3.97569e-015 1.39149e-014
lhumerus -39.0309 10.5787 80.672
lradius 24.4415
lwrist -1.0113
lhand -4.58275 17.9367
lfingers 7.12502
lthumb 21.1943 46.7981
rfemur 14.4583 14.5463 26.8481
rtibia 9.54166e-015
rfoot -12.957 -13.3612
rtoes 7.08479
lfemur -35.5916 -20.8417 -9.93119
ltibia 28.0213
lfoot -13.4221 15.5037
ltoes 10.8369
37
root -1.12125 16.4461 -22.7687 3.12274 4.07627 0.748104
lowerback 12.1755 1.19574 -5.58209
upperback -4.63616 0.823143 1.48375
thorax -12.0807 0.897052 4.60676
lowerneck -8.43093 -7.00432 -4.33279
upperneck 17.7944 -9.73532 4.16755
head 7.25844 -4.61071 1.18196
rclavicle 4.41053e-016 5.36719e-015
rhumerus -33.8786 4.38171 -85.5681
rradius 26.534
rwrist 6.01293
rhand -11.5066 20.1136
rfingers 7.12502
rthumb 14.5324 -9.35738
lclavicle 4.41053e-016 5.36719e-015
lhumerus -38.7478 10.9429 80.3345
lradius 23.9608
lwrist -1.71563
lhand -4.38177 18.0531
lfingers 7.12502
lthumb 21.3873 46.8927
rfemur 14.8406 14.2629 26.8599
rtibia 1.90833e-014
rfoot -13.127 -13.2289
rtoes 5.79029
lfemur -35.9458 -22.1211 -9.22692
ltibia 27.4321
lfoot -14.2555 16.5251
ltoes 12.26
38
root -1.09597 16.437 -22.67 3.14498 3.96605 0.613394
lowerback 11.9638 1.24713 -5.42823
upperback -4.48042 0.93028 1.45875
thorax -11.783 0.921612 4.46626
lowerneck -9.05116 -7.06771 -4.03724
upperneck 17.7518 -9.83815 4.12012
head 7.3411 -4.63359 1.08724
rclavicle 1.72508e-014 7.95139e-016
rhumerus -33.4794 4.30548 -85.7138
rradius 26.6695
rwrist 5.88721
rhand -10.1723 20.004
rfingers 7.12502
rthumb 15.8178 -9.36978
lclavicle 1.72508e-014 7.95139e-016
lhumerus -38.4325 11.1068 80.1536
lradius 23.4927
lwrist -2.25378
lhand -4.32417 18.0803
lfingers 7.12502
lthumb 21.4426 46.9137
rfemur 15.1871 14.1172 26.9757
rtibia 2.54444e-014
rfoot -13.306 -13.0746
rtoes 5.02984
lfemur -36.1754 -22.9362 -8.61281
ltibia 26.9163
lfoot -14.7422 17.3357
ltoes 12.0912
39
root -1.069 16.426 -22.5694 3.1634 3.67118 0.483493
lowerback 11.8613 1.26457 -5.45883
upperback -4.52873 0.969936 1.606
thorax -11.7863 0.951508 4.63804
lowerneck -8.7302 -6.95407 -4.2056
upperneck 17.5886 -9.66126 4.14722
head 7.23338 -4.56607 1.15451
rclavicle 1.2188e-014 1.41137e-014
rhumerus -33.8921 4.58287 -85.5993
rradius 25.6015
rwrist 9.0635
rhand -13.1945 23.8228
rfingers 7.12502
rthumb 12.9057 -5.75818
lclavicle 1.2188e-014 1.41137e-014
lhumerus -38.8596 11.1431 80.2521
lradius 23.3542
lwrist -2.35687
lhand -4.65909 18.1373
lfingers 7.12502
lthumb 21.1209 47.0069
rfemur 15.5279 14.1555 27.0735
rtibia -5.08889e-014
rfoot -13.3658 -12.9711
rtoes 4.35046
lfemur -36.2527 -23.2628 -8.24187
ltibia 26.4907
lfoot -14.9886 17.8893
ltoes 11.3159
40
root -1.04109 16.4157 -22.4668 3.1814 3.38524 0.409617
lowerback 11.8052 1.27166 -5.50053
upperback -4.60352 0.984501 1.6955
thorax -11.8437 0.969871 4.75815
lowerneck -8.10184 -6.87697 -4.37023
upperneck 17.4742 -9.55217 4.18508
head 7.0907 -4.53457 1.22809
rclavicle 2.80162e-015 -1.78906e-015
rhumerus -34.1949 4.89332 -85.6651
rradius 25.4369
rwrist 9.98152
rhand -14.4811 24.7935
rfingers 7.12502
rthumb 11.6652 -4.86176
lclavicle 2.80162e-015 -1.78906e-015
lhumerus -39.2547 11.0397 80.3
lradius 23.2199
lwrist -2.26041
lhand -4.93492 17.9833
lfingers 7.12502
lthumb 20.8559 46.8823
rfemur 15.8811 14.1843 27.0995
rtibia 3.18055e-014
rfoot -13.5378 -12.7645
rtoes 4.312
lfemur -36.3345 -23.8683 -7.84042
ltibia 26.1809
lfoot -15.5526 18.459
ltoes 12.3588
41
root -1.0095 16.3995 -22.3582 3.15324 3.20701 0.46008
lowerback 11.7714 1.28982 -5.52671
upperback -4.63001 1.0003 1.64323
thorax -11.855 0.977755 4.71179
lowerneck -7.92329 -6.85401 -4.36857
upperneck 17.5116 -9.54202 4.25277
head 7.07416 -4.52696 1.25642
rclavicle 1.10822e-014 1.64991e-014
rhumerus -34.1492 4.94106 -85.8352
rradius 25.5789
rwrist 9.06742
rhand -13.74 24.1861
rfingers 7.12502
rthumb 12.3798 -5.42732
lclavicle 1.10822e-014 1.64991e-014
lhumerus -39.1854 11.3687 79.9929
lradius 22.5538
lwrist -2.74996
lhand -4.93571 17.8998
lfingers 7.12502
lthumb 20.8552 46.7989
rfemur 16.3447 14.0967 26.9966
rtibia 1.90833e-014
rfoot -13.7582 -12.4941
rtoes 4.0476
lfemur -36.2724 -24.3402 -7.75182
ltibia 25.9297
lfoot -15.8164 18.6551
ltoes 13.0951
42
root -0.975842 16.3831 -22.2479 3.08982 2.96587 0.446216
lowerback 11.882 1.33963 -5.51817
upperback -4.65896 1.06095 1.63147
thorax -11.9623 1.00935 4.68047
lowerneck -8.18779 -6.86222 -4.23157
upperneck 17.6514 -9.55253 4.14321
head 7.15413 -4.52585 1.18725
rclavicle -1.6027e-014 5.1684e-015
rhumerus -34.056 5.11514 -86.0403
rradius 26.2114
rwrist 6.86074
rhand -11.3044 22.0161
rfingers 7.12502
rthumb 14.7273 -7.44078
lclavicle -1.6027e-014 5.1684e-015
lhumerus -39.2653 11.7678 79.6407
lradius 22.0342
lwrist -3.231
lhand -4.79518 17.9892
lfingers 7.12502
lthumb 20.9902 46.8733
rfemur 16.8628 14.0741 26.9506
rtibia 1.90833e-014
rfoot -13.9072 -12.2072
rtoes 3.83089
lfemur -36.0402 -24.3735 -7.8687
ltibia 25.7628
lfoot -15.4623 18.6285
ltoes 12.7531
43
root -0.94515 16.3674 -22.1383 3.055 2.69142 0.33525
lowerback 11.9361 1.37314 -5.53386
upperback -4.71362 1.10959 1.71936
thorax -12.0673 1.0429 4.77626
lowerneck -8.1107 -6.86664 -4.19399
upperneck 17.5291 -9.54676 4.06593
head 7.09485 -4.5305 1.16182
rclavicle -2.72708e-015 1.78906e-015
rhumerus -34.1178 5.22636 -86.0658
rradius 25.3685
rwrist 8.02102
rhand -12.4342 23.6892
rfingers 7.12502
rthumb 13.6386 -5.84399
lclavicle -2.72708e-015 1.78906e-015
lhumerus -39.7816 12.0513 79.4413
lradius 21.9403
lwrist -3.51659
lhand -4.72385 17.8053
lfingers 7.12502
lthumb 21.0587 46.6818
rfemur 17.3311 14.0876 27.0258
rtibia 5.40694e-014
rfoot -13.8567 -12.0396
rtoes 2.52676
lfemur -35.7695 -24.0541 -8.03855
ltibia 25.6765
lfoot -14.9704 18.3722
ltoes 11.647
44
root -0.91625 16.3489 -22.0275 3.07676 2.32614 0.218688
lowerback 11.7009 1.43231 -5.5171
upperback -4.67652 1.21104 1.76671
thorax -11.897 1.08597 4.79667
lowerneck -8.12017 -6.8278 -4.26368
upperneck 17.5127 -9.50663 4.19758
head 7.09947 -4.50486 1.21841
rclavicle -1.12003e-014 -1.5704e-014
rhumerus -34.0786 5.39799 -86.2544
rradius 25.2458
rwrist 7.78523
rhand -12.1695 23.3813
rfingers 7.12502
rthumb 13.8937 -6.13454
lclavicle -1.12003e-014 -1.5704e-014
lhumerus -40.1428 11.9874 79.4211
lradius 22.0088
lwrist -3.58963
lhand -4.87714 17.8744
lfingers 7.12502
lthumb 20.9115 46.7673
rfemur 17.7597 14.1981 27.0918
rtibia -3.18055e-015
rfoot -13.6826 -11.8895
rtoes 1.37722
lfemur -35.5045 -23.4769 -8.27495
ltibia 25.7178
lfoot -14.7085 17.6587
ltoes 12.8223
